<?xml version="1.0" encoding="utf-8"?>
<svg width="100%" height="100%" viewBox="0 0 1200 1080" version="1.1" xmlns="http://www.w3.org/2000/svg" style="fill-rule:evenodd;clip-rule:evenodd;stroke-linejoin:round;stroke-miterlimit:2;">
  <path d="M 0 0 H 1200 V 1080 H 0 V 0 Z" id="Artboard1" style="fill:rgb(46,46,46);"/>
  <path d="M 503.73 798.743 L 503.73 764.407 L 514.441 764.407 C 518.988 764.407 522.379 765.071 524.613 766.4 C 526.848 767.728 527.965 769.939 527.965 773.032 C 527.965 773.532 527.934 774.025 527.871 774.509 C 527.809 774.993 527.668 775.544 527.449 776.161 C 527.23 776.779 526.941 777.337 526.582 777.837 C 526.223 778.337 525.723 778.825 525.082 779.302 C 524.441 779.779 523.691 780.15 522.832 780.415 C 524.957 780.931 526.582 781.919 527.707 783.38 C 528.832 784.841 529.394 786.642 529.394 788.782 C 529.394 792.017 528.25 794.486 525.961 796.189 C 523.672 797.892 520.504 798.743 516.457 798.743 L 503.73 798.743 Z M 510.082 794.15 L 515.59 794.15 C 520.465 794.15 522.902 792.243 522.902 788.431 C 522.902 786.509 522.293 785.126 521.074 784.282 C 519.855 783.439 517.973 783.017 515.426 783.017 L 510.082 783.017 L 510.082 794.15 Z M 510.082 778.587 L 515.519 778.587 C 519.723 778.587 521.824 776.986 521.824 773.782 C 521.824 771.986 521.219 770.751 520.008 770.079 C 518.797 769.407 516.871 769.071 514.23 769.071 L 510.082 769.071 L 510.082 778.587 Z" style="fill: white; fill-rule: nonzero; stroke-width: 1;"/>
  <path d="M 534.527 798.743 L 534.527 772.986 L 540.668 772.986 L 540.668 798.743 L 534.527 798.743 Z M 534.527 769.236 L 534.527 763.986 L 540.691 763.986 L 540.691 769.236 L 534.527 769.236 Z" style="fill: white; fill-rule: nonzero; stroke-width: 1;"/>
  <path d="M 552.223 810.275 L 551.871 805.306 L 554.988 805.306 C 558.598 805.306 561.121 804.825 562.559 803.864 C 563.996 802.904 564.715 801.142 564.715 798.579 C 564.715 797.532 564.668 796.4 564.574 795.181 C 564.168 795.743 563.781 796.208 563.414 796.575 C 563.047 796.943 562.586 797.306 562.031 797.665 C 561.477 798.025 560.812 798.294 560.039 798.474 C 559.266 798.654 558.387 798.743 557.402 798.743 C 553.996 798.743 551.195 797.517 549 795.064 C 546.805 792.611 545.707 789.446 545.707 785.571 C 545.707 783.509 546.012 781.63 546.621 779.935 C 547.23 778.239 548.059 776.845 549.105 775.751 C 550.152 774.657 551.359 773.818 552.727 773.232 C 554.094 772.646 555.551 772.353 557.098 772.353 C 560.551 772.353 563.121 773.611 564.809 776.126 L 565.23 772.986 L 570.715 772.986 L 570.715 796.915 C 570.715 798.196 570.652 799.349 570.527 800.372 C 570.402 801.396 570.184 802.38 569.871 803.325 C 569.559 804.271 569.148 805.095 568.641 805.798 C 568.133 806.501 567.496 807.142 566.73 807.72 C 565.965 808.298 565.062 808.771 564.023 809.138 C 562.984 809.505 561.777 809.786 560.402 809.982 C 559.027 810.177 557.48 810.275 555.762 810.275 L 552.223 810.275 Z M 558.387 794.454 C 562.621 794.454 564.762 791.618 564.809 785.946 L 564.809 785.056 C 564.777 782.509 564.246 780.54 563.215 779.15 C 562.184 777.759 560.676 777.056 558.691 777.04 C 556.441 777.04 554.738 777.81 553.582 779.349 C 552.426 780.888 551.848 782.962 551.848 785.571 C 551.848 788.087 552.43 790.196 553.594 791.9 C 554.758 793.603 556.355 794.454 558.387 794.454 Z" style="fill: white; fill-rule: nonzero; stroke-width: 1;"/>
  <path d="M 577.184 798.743 L 577.184 764.314 L 588.621 764.314 C 591.324 764.314 593.637 764.661 595.559 765.357 C 597.48 766.052 599 767.181 600.117 768.743 C 601.234 770.306 601.793 772.267 601.793 774.626 C 601.793 776.267 601.582 777.724 601.16 778.997 C 600.738 780.271 600.043 781.427 599.074 782.466 C 598.105 783.505 596.742 784.306 594.984 784.868 C 593.227 785.431 591.105 785.712 588.621 785.712 C 586.496 785.712 584.769 785.65 583.441 785.525 L 583.441 798.743 L 577.184 798.743 Z M 587.941 781.118 C 589.238 781.118 590.367 780.993 591.328 780.743 C 592.289 780.493 593.039 780.173 593.578 779.782 C 594.117 779.392 594.547 778.907 594.867 778.329 C 595.187 777.751 595.398 777.193 595.5 776.654 C 595.602 776.114 595.652 775.509 595.652 774.837 C 595.652 772.946 595.043 771.509 593.824 770.525 C 592.605 769.54 590.887 769.048 588.668 769.048 L 583.441 769.048 L 583.441 781.071 C 583.629 781.103 585.129 781.118 587.941 781.118 Z" style="fill: white; fill-rule: nonzero; stroke-width: 1;"/>
  <path d="M 606.527 798.743 L 606.527 764.407 L 627.34 764.407 L 627.082 769.446 L 612.879 769.446 L 612.879 778.306 L 626.379 778.306 L 626.379 783.345 L 612.879 783.345 L 612.879 793.681 L 627.598 793.681 L 627.387 798.743 L 606.527 798.743 Z" style="fill: white; fill-rule: nonzero; stroke-width: 1;"/>
  <path d="M 632.941 798.743 L 632.941 772.986 L 637.91 772.986 L 638.613 776.267 C 638.926 775.876 639.227 775.529 639.516 775.224 C 639.805 774.919 640.203 774.575 640.711 774.193 C 641.219 773.81 641.758 773.493 642.328 773.243 C 642.898 772.993 643.602 772.782 644.437 772.611 C 645.273 772.439 646.168 772.353 647.121 772.353 C 649.168 772.353 650.805 772.767 652.031 773.595 C 653.258 774.423 654.121 775.392 654.621 776.501 C 655.543 775.173 656.738 774.15 658.207 773.431 C 659.676 772.712 661.309 772.353 663.105 772.353 C 666.059 772.353 668.227 773.189 669.609 774.861 C 670.992 776.532 671.684 779.009 671.684 782.29 L 671.684 798.743 L 665.519 798.743 L 665.519 784.118 C 665.519 781.603 665.242 779.786 664.687 778.669 C 664.133 777.552 663.074 776.993 661.512 776.993 C 659.121 776.993 657.402 778.071 656.355 780.228 C 655.918 781.181 655.621 782.329 655.465 783.673 L 655.465 798.743 L 649.324 798.743 L 649.324 783.837 C 649.324 781.54 649.019 779.829 648.41 778.704 C 647.801 777.579 646.699 777.017 645.105 777.017 C 643.809 777.017 642.691 777.345 641.754 778.001 C 640.816 778.657 640.105 779.517 639.621 780.579 C 639.262 782.157 639.082 784.048 639.082 786.251 L 639.082 798.743 L 632.941 798.743 Z" style="fill: white; fill-rule: nonzero; stroke-width: 1;"/>
  <path d="M 696.316 796.728 C 694.269 798.4 691.574 799.236 688.23 799.236 C 684.887 799.236 682.195 798.4 680.156 796.728 C 678.117 795.056 677.098 792.603 677.098 789.368 L 677.098 772.986 L 683.262 772.986 L 683.262 789.134 C 683.262 791.056 683.664 792.446 684.469 793.306 C 685.273 794.165 686.551 794.595 688.301 794.595 C 690.019 794.595 691.273 794.169 692.062 793.318 C 692.852 792.466 693.246 791.071 693.246 789.134 L 693.246 772.986 L 699.387 772.986 L 699.387 789.368 C 699.387 792.587 698.363 795.04 696.316 796.728 Z" style="fill: white; fill-rule: nonzero; stroke-width: 1;"/>
  <path d="M 740.108 586.183 C 744.469 587.996 747.751 592.748 753.239 592.405 C 764.165 597.893 769.261 610.975 780.579 615.728 C 773.279 624.498 765.635 609.505 756.914 608.819 C 748.878 597.158 732.122 595.345 728.839 581.871 C 733.199 577.804 737.56 581.43 740.108 586.183" style="fill: white; fill-rule: nonzero; stroke-width: 0.49;"/>
  <path d="M 805.714 631.701 C 822.863 643.019 841.776 650.27 857.455 663.058 C 836.337 660.511 818.11 645.224 798.806 634.983 C 793.367 633.513 787.88 630.966 784.94 625.527 C 785.332 622.979 783.47 619.696 786.753 618.618 C 794.445 619.696 798.806 628.81 805.714 631.701" style="fill: white; fill-rule: nonzero; stroke-width: 0.49;"/>
  <path d="M 810.075 671.78 C 807.87 675.405 803.901 672.515 801.354 671.78 C 787.88 665.606 775.483 656.493 763.087 647.379 C 760.54 644.832 763.479 641.549 766.37 643.019 C 782.049 650.319 795.866 663.058 810.075 671.78" style="fill: white; fill-rule: nonzero; stroke-width: 0.49;"/>
  <path d="M 794.445 704.264 C 788.615 706.812 782.049 700.639 776.953 696.229 C 781.706 687.116 787.88 702.06 794.445 702.403 L 794.445 704.264" style="fill: white; fill-rule: nonzero; stroke-width: 0.49;"/>
  <path d="M 447.8 317.935 C 445.546 316.223 443.527 314.566 439.916 310.219 C 443.527 314.566 445.546 316.223 447.8 317.935 C 450.382 320.389 453.091 322.883 455.698 325.19 C 459.525 328.572 463.141 331.55 465.835 333.409 C 469.143 338.807 476.002 343.527 481.455 347.521 C 498.947 364.67 510.951 388.335 531.383 404.357 C 537.213 416.753 552.5 417.488 562.006 427.679 C 576.215 452.814 603.898 460.115 619.577 483.045 C 638.538 499.459 657.5 519.499 678.225 533.708 C 687.339 550.464 706.3 546.839 713.944 565.065 C 719.039 566.878 722.665 572.366 724.527 576.383 C 712.866 586.918 704.488 565.065 693.904 560.705 C 685.869 555.609 679.695 548.308 671.317 542.478 C 633.051 512.59 599.88 481.967 560.193 455.754 C 547.797 449.532 539.418 435.323 530.305 424.396 C 508.452 418.223 501.887 394.508 484.052 382.504 C 481.161 377.017 476.409 371.578 471.999 367.56 C 471.656 373.783 464.699 371.578 462.151 368.295 C 455.585 359.917 444.316 356.634 437.016 350.069 C 439.955 340.955 429.372 346.786 426.481 343.895 C 422.121 338.456 416.633 332.234 410.802 328.951 C 406.442 331.156 410.802 333.704 411.537 335.909 C 425.403 345.757 429.372 366.531 446.521 370.157 C 462.935 388.384 481.161 402.593 498.996 417.537 C 497.526 419.35 493.509 418.615 490.961 420.085 C 525.601 436.841 552.157 472.903 585.72 492.599 C 598.459 504.604 611.59 515.922 622.173 527.583 C 622.908 528.661 620.703 529.053 621.438 530.131 C 666.27 560.362 701.989 608.819 750.054 634.346 C 751.524 637.972 747.506 638.364 745.694 636.894 C 693.953 604.116 649.513 558.892 597.038 527.583 C 553.284 495.147 524.18 448.503 475.331 424.445 C 473.861 416.067 465.14 416.459 459.652 413.127 C 454.164 405.092 442.503 398.183 442.16 387.6 C 434.517 379.222 420.308 375.596 416.633 363.2 C 409.725 359.574 403.502 352.616 394.781 355.164 C 388.607 351.147 385.667 341.298 377.289 340.22 C 375.819 336.938 371.066 337.281 371.458 333.312 C 379.102 332.234 376.554 322.386 384.589 321.259 C 391.155 324.884 398.455 324.541 405.364 321.994 C 411.194 310.675 394.781 307.785 390.42 299.406 C 387.137 294.654 393.311 289.95 394.046 287.745 C 406.05 287.402 413.007 311.41 426.481 301.954 C 429.676 301.954 431.107 305.759 434.884 304.609 C 436.873 307.146 442.018 312.44 447.8 317.935 Z" style="fill: white; stroke-width: 0.49;"/>
  <path d="M 389.587 356.977 C 393.605 359.525 397.622 362.808 402.718 363.151 C 419.132 388.286 447.893 405.043 463.964 431.305 C 471.999 438.605 486.208 440.761 488.364 453.157 C 504.778 466.631 525.16 480.105 534.666 498.724 C 545.984 504.555 556.175 511.855 568.179 515.138 C 601.35 541.351 626.485 569.426 657.108 598.187 C 676.805 620.774 703.361 625.87 724.527 643.754 C 739.079 657.62 758.433 671.437 769.359 687.508 C 768.624 688.977 765.341 688.977 763.871 687.508 C 718.305 648.163 668.426 617.884 623.202 577.461 C 616.637 578.196 610.806 573.101 605.711 568.74 C 575.823 553.453 556.861 514.795 523.347 506.416 C 513.156 488.19 494.537 477.264 477.046 467.072 C 463.18 461.634 461.759 443.75 448.236 440.124 C 444.218 435.029 436.918 434.637 435.105 427.728 C 421.974 413.127 408.892 396.762 392.086 387.649 C 386.99 382.553 384.442 376.723 380.768 370.892 C 374.937 369.814 364.746 374.175 360.728 365.796 C 354.897 365.796 348.332 366.874 345.049 361.436 C 345.784 355.262 351.615 351.979 345.049 346.492 C 351.958 328.265 367.294 347.962 378.955 346.492 C 383.756 348.599 387.382 352.224 389.587 356.977" style="fill: white; fill-rule: nonzero; stroke-width: 0.49;"/>
  <path d="M 403.453 404.357 C 410.753 410.53 416.927 417.488 416.584 426.944 C 429.323 449.189 450.833 464.818 469.059 481.232 C 474.89 491.816 481.798 502.007 489.442 511.855 C 504.729 505.29 513.842 522.781 523.347 531.895 C 521.535 543.213 536.087 545.369 542.652 551.934 C 548.14 549.729 551.422 555.217 552.108 559.921 C 564.504 565.016 569.943 581.038 583.809 582.508 C 589.297 593.434 604.927 588.731 605.662 601.813 C 617.323 610.926 630.454 617.835 641.38 626.213 C 640.302 633.513 651.963 629.496 651.228 637.531 C 656.716 641.549 662.155 649.192 670.19 648.065 C 671.66 658.649 683.321 658.649 689.495 663.744 C 722.665 691.819 760.197 716.954 791.897 746.107 C 787.145 746.107 783.127 743.168 778.766 741.747 C 692.385 673.985 600.958 614.209 515.655 542.429 C 510.902 539.881 510.559 534.442 508.354 530.033 C 478.859 526.015 463.18 493.971 438.387 477.558 C 429.274 452.765 395.026 447.327 392.135 419.987 C 383.021 411.608 367 414.891 362.639 400.682 C 360.091 399.604 360.091 395.929 359.013 393.774 C 353.917 388.678 338.974 390.148 343.334 379.565 C 356.808 372.656 367.735 387.943 380.866 390.148 C 387.039 396.321 396.152 399.604 403.453 404.357" style="fill: white; fill-rule: nonzero; stroke-width: 0.49;"/>
</svg>