<?xml version="1.0" encoding="utf-8"?>
<svg width="100%" height="100%" viewBox="0 0 1200 1080" version="1.1" xmlns="http://www.w3.org/2000/svg" style="fill-rule:evenodd;clip-rule:evenodd;stroke-linejoin:round;stroke-miterlimit:2;">
  <path d="M 0 0 H 1200 V 1080 H 0 V 0 Z" id="Artboard1" style="fill:rgb(46,46,46);"/>
  <path d="M 524.402 798.743 L 524.402 764.407 L 544.723 764.407 L 544.488 769.446 L 530.707 769.446 L 530.707 779.196 L 543.809 779.196 L 543.809 784.189 L 530.707 784.189 L 530.707 798.743 L 524.402 798.743 Z" style="fill: white; fill-rule: nonzero; stroke-width: 1;"/>
  <path d="M 558.691 799.095 C 556.926 799.095 555.461 798.888 554.297 798.474 C 553.133 798.06 552.215 797.4 551.543 796.493 C 550.871 795.587 550.402 794.509 550.137 793.259 C 549.871 792.009 549.738 790.454 549.738 788.595 L 549.738 763.493 L 555.879 763.095 L 555.879 788.478 C 555.879 790.79 556.152 792.357 556.699 793.177 C 557.246 793.997 558.309 794.407 559.887 794.407 C 560.668 794.407 561.66 794.321 562.863 794.15 L 563.027 798.532 C 563.012 798.532 562.82 798.571 562.453 798.65 C 562.086 798.728 561.734 798.794 561.398 798.849 C 561.062 798.904 560.637 798.958 560.121 799.013 C 559.605 799.068 559.129 799.095 558.691 799.095 Z" style="fill: white; fill-rule: nonzero; stroke-width: 1;"/>
  <path d="M 567.434 809.595 C 566.434 809.595 565.371 809.532 564.246 809.407 L 563.941 804.65 C 564.66 804.728 565.574 804.767 566.684 804.767 C 568.105 804.767 569.246 804.486 570.105 803.923 C 570.965 803.361 571.676 802.361 572.238 800.923 C 572.301 800.767 572.613 799.884 573.176 798.275 L 562.816 772.986 L 569.379 772.986 L 576.152 791.665 C 576.652 789.806 577.773 786.353 579.516 781.306 C 581.258 776.259 582.215 773.486 582.387 772.986 L 588.949 772.986 C 581.809 791.861 578.207 801.376 578.144 801.532 C 577.035 804.423 575.637 806.489 573.949 807.732 C 572.262 808.974 570.09 809.595 567.434 809.595 Z" style="fill: white; fill-rule: nonzero; stroke-width: 1;"/>
  <path d="M 603.293 799.236 C 599.355 799.236 596.289 798.064 594.094 795.72 C 591.898 793.376 590.801 790.025 590.801 785.665 C 590.801 781.446 591.953 778.173 594.258 775.845 C 596.562 773.517 599.598 772.353 603.363 772.353 C 606.379 772.353 608.926 773.001 611.004 774.298 L 609.551 778.681 C 607.426 777.571 605.449 777.017 603.621 777.017 C 601.543 777.017 599.906 777.759 598.711 779.243 C 597.516 780.728 596.918 782.892 596.918 785.736 C 596.918 788.611 597.508 790.798 598.687 792.298 C 599.867 793.798 601.535 794.548 603.691 794.548 C 605.941 794.548 608.105 793.884 610.184 792.556 L 610.769 797.22 C 609.691 797.939 608.574 798.454 607.418 798.767 C 606.262 799.079 604.887 799.236 603.293 799.236 Z" style="fill: white; fill-rule: nonzero; stroke-width: 1;"/>
  <path d="M 622.441 799.236 C 620.051 799.236 618.117 798.575 616.641 797.255 C 615.164 795.935 614.426 794.032 614.426 791.548 C 614.426 788.876 615.301 786.896 617.051 785.607 C 618.801 784.318 621.441 783.501 624.973 783.157 C 625.457 783.095 625.98 783.032 626.543 782.97 C 627.105 782.907 627.738 782.845 628.441 782.782 C 629.144 782.72 629.699 782.665 630.105 782.618 L 630.105 781.259 C 630.105 779.696 629.746 778.56 629.027 777.849 C 628.309 777.138 627.215 776.782 625.746 776.782 C 623.652 776.782 621.066 777.368 617.988 778.54 C 617.973 778.493 617.715 777.782 617.215 776.407 C 616.715 775.032 616.457 774.329 616.441 774.298 C 619.473 773.001 622.754 772.353 626.285 772.353 C 629.754 772.353 632.277 773.107 633.855 774.614 C 635.434 776.122 636.223 778.564 636.223 781.939 L 636.223 798.743 L 631.676 798.743 C 631.66 798.681 631.488 798.157 631.16 797.173 C 630.832 796.189 630.668 795.665 630.668 795.603 C 629.387 796.853 628.133 797.771 626.906 798.357 C 625.68 798.943 624.191 799.236 622.441 799.236 Z M 624.105 794.876 C 625.527 794.876 626.766 794.536 627.82 793.857 C 628.875 793.177 629.629 792.353 630.082 791.384 L 630.082 786.415 C 630.035 786.415 629.625 786.446 628.852 786.509 C 628.078 786.571 627.66 786.603 627.598 786.603 C 625.113 786.821 623.293 787.29 622.137 788.009 C 620.98 788.728 620.402 789.884 620.402 791.478 C 620.402 792.571 620.723 793.411 621.363 793.997 C 622.004 794.583 622.918 794.876 624.105 794.876 Z" style="fill: white; fill-rule: nonzero; stroke-width: 1;"/>
  <path d="M 650.637 799.212 C 646.84 799.212 643.801 798.564 641.519 797.267 L 642.152 792.65 C 643.184 793.212 644.496 793.716 646.09 794.161 C 647.684 794.607 649.137 794.829 650.449 794.829 C 651.809 794.829 652.867 794.575 653.625 794.068 C 654.383 793.56 654.769 792.814 654.785 791.829 C 654.785 790.939 654.43 790.236 653.719 789.72 C 653.008 789.204 651.652 788.564 649.652 787.798 C 648.965 787.548 648.519 787.384 648.316 787.306 C 645.941 786.384 644.23 785.357 643.184 784.224 C 642.137 783.091 641.613 781.556 641.613 779.618 C 641.613 777.275 642.461 775.478 644.156 774.228 C 645.852 772.978 648.215 772.353 651.246 772.353 C 654.527 772.353 657.41 772.97 659.894 774.204 L 658.371 778.446 C 655.918 777.306 653.582 776.736 651.363 776.736 C 650.129 776.736 649.164 776.943 648.469 777.357 C 647.773 777.771 647.426 778.4 647.426 779.243 C 647.426 780.04 647.762 780.661 648.434 781.107 C 649.105 781.552 650.418 782.134 652.371 782.853 C 652.434 782.868 652.637 782.939 652.98 783.064 C 653.324 783.189 653.59 783.29 653.777 783.368 C 656.137 784.228 657.871 785.255 658.98 786.45 C 660.09 787.646 660.644 789.204 660.644 791.126 C 660.629 793.704 659.754 795.696 658.019 797.103 C 656.285 798.509 653.824 799.212 650.637 799.212 Z" style="fill: white; fill-rule: nonzero; stroke-width: 1;"/>
  <path d="M 675.785 799.095 C 674.035 799.095 672.578 798.888 671.414 798.474 C 670.25 798.06 669.34 797.407 668.684 796.517 C 668.027 795.626 667.562 794.575 667.289 793.364 C 667.016 792.154 666.879 790.657 666.879 788.876 L 666.879 776.712 L 662.66 776.712 L 662.894 773.384 L 667.301 772.986 L 669.269 766.001 L 673.019 765.978 L 673.019 772.986 L 679.418 772.986 L 679.418 776.712 L 673.019 776.712 L 673.019 788.993 C 673.019 790.946 673.301 792.337 673.863 793.165 C 674.426 793.993 675.465 794.407 676.98 794.407 C 677.871 794.407 678.824 794.329 679.84 794.173 L 680.004 798.579 C 679.973 798.579 679.781 798.614 679.43 798.685 C 679.078 798.755 678.742 798.818 678.422 798.872 C 678.102 798.927 677.691 798.978 677.191 799.025 C 676.691 799.071 676.223 799.095 675.785 799.095 Z" style="fill: white; fill-rule: nonzero; stroke-width: 1;"/>
  <path d="M 645.607 342.313 C 660.273 344.515 675.251 349.636 683.061 352.025 C 698.797 356.835 724.342 371.785 733.363 378.956 C 737.63 382.346 746.604 391.226 750.078 395.696 C 753.463 400.05 759.929 409.483 764.055 415.293 C 770.62 424.885 778.353 439.17 784.912 452.317 C 792.239 467.005 792.741 471.259 794.956 483.539 L 799.8 505.186 C 800.255 508.929 800.633 522.659 792.573 524.583 C 784.516 526.508 777.068 522.79 773.556 517.357 C 768.696 509.836 769.367 499.163 763.871 486.946 C 759.585 477.07 757.711 462.719 750.867 452.398 L 745.5 443.322 C 736.001 428.699 726.102 417.093 720.197 409.523 C 714.998 403.163 705.288 394.517 696.084 388.366 C 687.571 383.204 673.81 377.318 663.885 374.287 C 660.722 373.257 647.185 369.277 638.773 368.157 C 627.357 366.875 619.847 365.069 608.998 364.305 C 595.605 363.36 589.179 362.169 571.806 364.199 C 565.225 365.983 554.798 366.691 545.412 370.281 C 537.833 373.373 527.29 378.366 516.963 384.433 C 505.849 390.527 488.978 402.992 477.79 413.634 C 466.514 425.683 460.875 432.149 453.099 447.423 C 449.656 454.981 442.996 466.671 440.311 474.924 C 438.477 483.302 434.977 498.929 435.567 506.518 C 435.832 520.114 434.643 522.915 435.663 534.028 C 435.701 544.035 438.985 550.971 440.352 559.156 C 441.521 564.81 446.945 584.377 450.301 588.918 C 465.557 621.787 486.034 636.023 508.853 646.291 C 515.284 649.566 535.412 654.952 541.236 656.497 C 551.163 658.287 564.23 659.481 576.806 659.725 C 590.037 659.984 608.274 658.19 619.341 654.116 C 631.318 649.712 645.167 643.452 645.008 643.627 C 650.566 640.564 659.047 635.564 661.689 633.366 C 666.795 630.093 669.87 628.827 672.896 625.676 C 677.26 621.859 679.902 619.66 683.208 614.928 C 685.048 612.262 687.971 608.178 690.818 604.57 C 693.882 599.551 695.641 594.261 698.632 587.717 C 702.209 578.039 701.654 578.503 702.334 568.223 C 702.977 565.244 702.265 555.232 701.726 553.532 C 700.113 544.293 700.684 536.143 698.569 527.173 C 695.712 515.036 693.339 505.953 689.692 494.309 C 686.265 481.2 676.196 469.054 668.639 460.38 C 663.957 455.002 649.431 442.302 629.279 434.37 C 623.605 432.461 614.316 430.296 608.418 429.22 C 595.826 427.904 593.777 428.749 581.722 429.631 C 577.573 430.356 567.941 432.324 564.401 433.568 C 554.046 437.205 550.237 439.516 539.651 446.001 C 534.723 448.861 531.008 451.051 525.971 455.773 C 521.95 459.494 519.078 465.82 515.821 469.528 C 511.361 475.598 506.395 483.695 503.064 492.429 C 499.452 501.115 498.289 513.346 498.837 521.215 C 498.837 527.213 500.469 538.192 501.118 540.594 C 501.764 542.998 503.386 550.453 503.738 551.951 C 504.09 553.445 507.967 561.332 508.501 562.474 C 510.687 567.128 514.873 573.815 521.925 580.643 C 527.128 586.326 537.187 591.903 544.717 594.065 C 551.47 597.77 562.857 598.4 569.158 598.413 C 572.258 598.226 580.178 597.739 584.31 596.747 C 592.692 594.735 594.238 594.682 602.875 590.93 C 610.626 587.337 615.885 586.042 621.285 582.053 C 621.285 582.053 628.695 576.245 632.064 571.997 C 633.842 569.754 636.889 559.068 636.346 552.45 C 636.094 543.389 637.413 538.248 635.564 530.793 C 633.714 523.339 630.558 514.699 627.136 509.375 C 623.671 503.982 616.219 498.726 607.738 494.543 C 602.99 492.198 591.74 490.024 586.968 489.459 C 577.9 488.383 570.318 492.498 565.715 497.204 C 561.722 501.767 553.83 511.246 556.975 521.046 C 559.819 529.914 563.253 539.362 576.553 538.66 C 585.68 540.56 596.238 537.802 599.753 539.421 C 604.971 542.384 606.977 548.928 605.081 553.492 C 603.758 562.29 595.33 563.345 586.335 564.015 C 578.288 565.363 557.848 561.423 553.356 558.058 C 550.343 556.267 545.73 551.966 542.48 549.062 C 540.144 546.972 537.499 542.312 535.693 538.965 C 533.475 534.855 532.355 531.829 531.785 529.15 C 531.108 525.969 529.714 519.896 530.241 513.823 C 530.597 509.727 531.694 507.984 532.786 501.995 C 534.96 495.204 537.661 490.036 542.006 484.147 C 547.667 478.402 554.857 471.562 561.875 468.383 C 568.063 465.115 578.905 463.911 588.714 464.485 C 596.671 465.245 606.085 466.216 612.307 468.302 C 622.959 472.108 626.004 472.866 634.746 478.38 C 642.136 482.953 649.568 491.365 653.716 498.333 C 662.541 516.389 667.603 536.477 663.923 563.516 C 663.62 568.086 662.198 572.549 659.35 578.597 C 656.72 584.18 652.107 590.971 645.186 596.083 C 642.397 598.662 638.002 601.837 634.425 603.697 C 629.347 606.778 625.932 608.381 620.629 611.045 C 615.976 613.231 610.552 615.733 603.477 617.698 C 595.811 620.73 589.928 620.854 580.287 622.292 C 570.795 624.673 544.829 622.972 529.361 616.151 C 518.803 611.712 506.957 603.887 497.952 594.348 C 492.949 589.106 488.055 579.592 486.617 577.646 C 479.456 563.878 478.052 550.927 476.904 548.208 C 475.344 544.512 474.568 536.224 473.523 530.553 C 472.344 524.197 473.074 497.538 479.493 480.426 C 483.111 473.614 485.229 467.541 487.677 464.35 C 492.079 458.091 494.206 454.179 497.949 449.74 C 503.591 442.897 507.699 437.314 513.195 433.378 C 527.2 421.99 538.899 415.983 554.722 408.466 C 574.385 400.459 580.29 402.115 598.898 402.411 C 607.27 402.483 619.454 405.116 625.442 406.207 C 636.565 407.689 642.937 410.368 650.46 412.467 C 658.504 414.713 663.155 418.297 669.755 422.286 C 675.189 425.795 681.583 430.602 685.806 434.504 C 696.61 442.426 701.823 450.754 708.444 460.982 C 709.645 462.697 717.509 479.456 718.763 484.122 C 719.343 486.459 721.124 493.168 722.265 497.089 C 723.735 503.308 724.445 508.817 726.083 515.834 C 727.549 523.064 730.044 536.716 731.127 549.477 C 732.945 560.422 730.032 582.764 728.313 589.623 C 724.486 602.411 717.792 618.019 704.574 633.05 C 698.959 639.707 692.989 644.865 686.093 650.464 C 680.819 654.865 676.293 657.426 668.145 662.292 C 657.079 668.895 648.658 673.112 633.146 679.176 C 626.83 681.203 618.873 683.87 610.296 685.645 C 593.68 687.179 576.606 688.651 557.97 686.437 C 539.33 684.219 520.659 678.967 509.63 675.579 C 503.544 673.296 491.754 668.352 486.81 665.692 C 483.595 664.057 472.812 656.684 470.981 654.909 C 463.592 650.336 447.054 634.784 436.378 620.287 C 434.038 615.808 425.626 602.368 423.802 596.479 C 418.951 586.52 415.57 574.473 413.583 569.327 C 411.487 557.316 407.947 549.58 406.565 537.522 C 406.724 534.683 405.994 528.005 405.352 524.309 C 406.291 516.056 405.037 508.276 406.675 499.294 C 408.112 491.711 410.018 488.546 410.47 481.693 C 410.913 478.761 414.687 469.943 415.692 466.019 C 418.736 459.556 419.494 454.232 423.468 447.011 C 429.194 435.758 435.18 422.811 444.378 411.501 C 447.005 407.994 454.453 399.582 456.992 396.666 C 462.993 390.668 466.514 389.72 473.32 383.7 C 474.028 383.254 478.523 378.129 483.23 376.367 C 491.031 370.34 497.771 368.129 505.195 362.649 C 520.073 355.238 525.497 352.736 540.266 346.592 C 548.799 343.548 560.702 341.863 564.988 340.201 C 573.141 339.696 581.416 337.094 589.994 337.612 C 599.622 337.521 609.326 338.208 619.001 339.087 C 625.548 339.489 634.06 339.808 645.607 342.313 Z" style="fill: white; fill-rule: nonzero; stroke-width: 0.643;"/>
</svg>