<?xml version="1.0" encoding="utf-8"?>
<svg width="100%" height="100%" viewBox="0 0 1200 1080" version="1.1" xmlns="http://www.w3.org/2000/svg" style="fill-rule:evenodd;clip-rule:evenodd;stroke-linejoin:round;stroke-miterlimit:2;">
  <path d="M 0 0 H 1200 V 1080 H 0 V 0 Z" id="Artboard1" style="fill:rgb(46,46,46);"/>
  <path d="M 524.004 799.212 C 519.863 799.212 516.152 798.259 512.871 796.353 L 514.418 791.314 C 515.887 792.126 517.484 792.782 519.211 793.282 C 520.937 793.782 522.621 794.032 524.262 794.032 C 526.277 794.032 527.801 793.599 528.832 792.732 C 529.863 791.864 530.379 790.618 530.379 788.993 C 530.379 786.837 528.941 785.345 526.066 784.517 C 525.863 784.454 525.293 784.286 524.355 784.013 C 523.418 783.739 522.539 783.474 521.719 783.216 C 520.898 782.958 520.309 782.759 519.949 782.618 C 515.34 780.993 513.035 777.962 513.035 773.525 C 513.035 770.415 514.141 768.017 516.352 766.329 C 518.562 764.642 521.496 763.798 525.152 763.798 C 529.293 763.798 532.863 764.65 535.863 766.353 L 533.941 770.993 C 530.879 769.618 528.035 768.931 525.41 768.931 C 523.519 768.931 522.094 769.263 521.133 769.927 C 520.172 770.591 519.66 771.696 519.598 773.243 C 519.598 775.15 520.543 776.392 522.434 776.97 C 522.809 777.111 523.73 777.415 525.199 777.884 C 526.668 778.353 527.621 778.657 528.059 778.798 C 531.199 779.829 533.445 781.111 534.797 782.642 C 536.148 784.173 536.824 786.306 536.824 789.04 C 536.824 792.306 535.668 794.818 533.355 796.575 C 531.043 798.333 527.926 799.212 524.004 799.212 Z" style="fill: white; fill-rule: nonzero; stroke-width: 1;"/>
  <path d="M 541.652 798.743 L 541.652 763.493 L 547.793 763.095 L 547.793 778.915 L 547.652 784.118 C 547.668 784.103 547.828 783.946 548.133 783.65 C 548.437 783.353 548.605 783.189 548.637 783.157 C 549.496 782.142 550.43 781.095 551.437 780.017 C 552.445 778.939 553.719 777.618 555.258 776.056 C 556.797 774.493 557.801 773.47 558.269 772.986 L 565.582 772.986 L 554.988 783.954 L 566.262 798.743 L 558.832 798.743 L 550.348 787.048 L 547.793 789.064 L 547.793 798.743 L 541.652 798.743 Z" style="fill: white; fill-rule: nonzero; stroke-width: 1;"/>
  <path d="M 570.504 809.595 C 569.504 809.595 568.441 809.532 567.316 809.407 L 567.012 804.65 C 567.73 804.728 568.644 804.767 569.754 804.767 C 571.176 804.767 572.316 804.486 573.176 803.923 C 574.035 803.361 574.746 802.361 575.309 800.923 C 575.371 800.767 575.684 799.884 576.246 798.275 L 565.887 772.986 L 572.449 772.986 L 579.223 791.665 C 579.723 789.806 580.844 786.353 582.586 781.306 C 584.328 776.259 585.285 773.486 585.457 772.986 L 592.019 772.986 C 584.879 791.861 581.277 801.376 581.215 801.532 C 580.105 804.423 578.707 806.489 577.019 807.732 C 575.332 808.974 573.16 809.595 570.504 809.595 Z" style="fill: white; fill-rule: nonzero; stroke-width: 1;"/>
  <path d="M 595.887 798.743 L 595.887 764.407 L 616.699 764.407 L 616.441 769.446 L 602.238 769.446 L 602.238 778.306 L 615.738 778.306 L 615.738 783.345 L 602.238 783.345 L 602.238 793.681 L 616.957 793.681 L 616.746 798.743 L 595.887 798.743 Z" style="fill: white; fill-rule: nonzero; stroke-width: 1;"/>
  <path d="M 622.301 798.743 L 622.301 772.986 L 627.269 772.986 L 627.973 776.267 C 628.285 775.876 628.586 775.529 628.875 775.224 C 629.164 774.919 629.562 774.575 630.07 774.193 C 630.578 773.81 631.117 773.493 631.687 773.243 C 632.258 772.993 632.961 772.782 633.797 772.611 C 634.633 772.439 635.527 772.353 636.48 772.353 C 638.527 772.353 640.164 772.767 641.391 773.595 C 642.617 774.423 643.48 775.392 643.98 776.501 C 644.902 775.173 646.098 774.15 647.566 773.431 C 649.035 772.712 650.668 772.353 652.465 772.353 C 655.418 772.353 657.586 773.189 658.969 774.861 C 660.352 776.532 661.043 779.009 661.043 782.29 L 661.043 798.743 L 654.879 798.743 L 654.879 784.118 C 654.879 781.603 654.602 779.786 654.047 778.669 C 653.492 777.552 652.434 776.993 650.871 776.993 C 648.48 776.993 646.762 778.071 645.715 780.228 C 645.277 781.181 644.98 782.329 644.824 783.673 L 644.824 798.743 L 638.684 798.743 L 638.684 783.837 C 638.684 781.54 638.379 779.829 637.769 778.704 C 637.16 777.579 636.059 777.017 634.465 777.017 C 633.168 777.017 632.051 777.345 631.113 778.001 C 630.176 778.657 629.465 779.517 628.98 780.579 C 628.621 782.157 628.441 784.048 628.441 786.251 L 628.441 798.743 L 622.301 798.743 Z" style="fill: white; fill-rule: nonzero; stroke-width: 1;"/>
  <path d="M 685.676 796.728 C 683.629 798.4 680.934 799.236 677.59 799.236 C 674.246 799.236 671.555 798.4 669.516 796.728 C 667.477 795.056 666.457 792.603 666.457 789.368 L 666.457 772.986 L 672.621 772.986 L 672.621 789.134 C 672.621 791.056 673.023 792.446 673.828 793.306 C 674.633 794.165 675.91 794.595 677.66 794.595 C 679.379 794.595 680.633 794.169 681.422 793.318 C 682.211 792.466 682.605 791.071 682.605 789.134 L 682.605 772.986 L 688.746 772.986 L 688.746 789.368 C 688.746 792.587 687.723 795.04 685.676 796.728 Z" style="fill: white; fill-rule: nonzero; stroke-width: 1;"/>
  <path d="M 502.445 573.067 C 493.157 575.12 483.836 577.114 474.433 578.728 C 466.509 580.088 458.32 580.217 450.363 581.461 C 442.799 582.644 435.469 581.868 428.151 580.561 C 425.932 580.165 423.635 579.1 421.911 577.79 C 419.311 575.814 419.507 572.836 421.636 570.96 C 425.758 567.327 430.057 563.584 435.038 561.042 C 440.668 558.167 446.642 555.82 452.66 553.36 C 447.445 548.37 446.892 540.79 452.276 534.881 C 460.899 525.416 469.241 515.645 478.473 506.798 C 491.841 493.989 506.744 483.085 522.988 473.975 C 537.049 466.09 551.791 460.029 567.475 456.427 C 574.745 454.758 582.246 454.083 589.646 452.987 C 590.932 452.796 592.223 452.648 593.65 452.556 C 592.068 452.501 590.476 452.472 588.875 452.459 C 588.473 439.696 590.054 427.496 594.906 415.749 C 600.711 401.695 609.854 390.401 621.922 381.334 C 637.809 369.398 655.864 365.032 675.443 366.035 C 677.172 366.123 678.888 366.474 680.907 366.698 C 679.716 367.219 678.256 367.856 676.734 368.252 C 678.256 367.856 679.716 367.219 681.204 366.695 C 692.646 368.76 703.474 372.425 713.144 379.061 C 732.997 392.684 744.69 411.476 748.572 435.178 C 748.777 436.43 748.626 437.741 748.445 439.558 C 741.777 440.118 735.303 440.144 728.92 439.897 C 729.195 433.959 729.674 428.281 729.433 422.633 C 729.326 420.141 726.771 418.395 724.325 418.925 C 722.468 419.327 719.575 421.182 719.504 422.515 C 719.194 428.376 719.741 434.283 719.646 440.214 C 717.111 440.273 714.908 440.266 712.705 440.313 C 714.908 440.266 717.111 440.273 719.963 440.245 C 723.351 440.213 726.091 440.191 728.831 440.17 C 735.303 440.144 741.777 440.118 748.448 439.873 C 754.187 439.88 759.781 439.701 765.257 440.42 C 774.125 441.585 780.044 449.537 780 458.577 C 775.409 458.577 770.801 458.577 765.535 458.575 C 765.25 458.575 764.964 458.575 764.679 458.575 C 764.506 459.531 764.309 460.485 764.114 461.441 C 762.407 469.792 758.048 475.007 751.503 478.036 C 751.484 478.04 751.466 478.044 751.447 478.048 C 757.656 482.437 763.305 487.314 767.749 493.254 C 776.192 504.537 779.452 517.104 777.926 530.347 C 776.295 544.51 769.343 556.743 757.31 566.368 C 747.791 573.982 736.827 579.106 723.973 580.539 C 723.791 580.77 723.61 581 723.427 581.229 C 713.507 592.961 701.59 601.989 687.186 607.475 C 682.226 609.364 677.039 610.656 671.387 612.232 C 671.292 612.244 671.198 612.256 671.103 612.268 C 671.397 618.104 671.407 623.941 671.383 630.102 C 671.371 630.104 671.36 630.105 671.348 630.107 L 671.348 630.573 C 675.652 630.573 679.575 630.571 683.499 630.573 C 690.54 630.577 695.713 635.745 696.015 643.073 C 696.395 652.287 692.316 658.759 684.723 659.073 C 675.686 659.447 666.612 658.808 657.568 658.255 C 654.028 658.039 649.943 652.246 649.739 647.749 C 649.491 642.298 649.346 636.839 649.316 631.272 C 649.103 626.232 649.066 621.267 648.986 616.028 C 648.957 615.847 648.972 615.793 649.022 615.763 C 648.975 615.74 648.934 615.7 648.934 615.7 C 634.817 616.026 620.789 614.996 606.321 612.748 C 598.489 611.294 591.165 610.015 583.841 608.736 C 569.3 605.562 555.143 601.167 541.415 595.407 C 527.599 589.611 514.532 582.528 502.445 573.067 Z M 657.518 614.046 C 654.859 614.402 652.213 614.758 649.543 615.118 C 649.311 615.33 649.233 615.527 649.117 615.728 C 649.144 615.719 649.174 615.707 649.206 615.689 C 649.225 615.676 649.243 615.663 649.259 615.649 C 649.233 615.525 649.312 615.329 649.543 615.118 C 649.602 615.216 649.588 615.314 649.512 615.425 C 649.618 615.311 649.676 615.209 649.722 615.099 C 652.316 614.748 654.91 614.397 657.518 614.046 Z M 666.226 419.965 C 665.534 421.379 664.34 422.761 664.246 424.214 C 663.976 428.384 664.019 432.587 664.191 436.767 C 664.329 440.12 666.813 442.393 669.751 442.272 C 672.719 442.149 674.872 439.798 674.95 436.38 C 675.034 432.659 675.013 428.935 674.963 425.213 C 674.892 419.906 671.674 417.771 666.226 419.965 Z M 606.092 630.095 L 606.092 633.385 C 610.288 633.385 614.113 633.652 617.9 633.329 C 625.344 632.692 630.13 638.591 630.741 644.827 C 631.476 652.321 627.468 658.42 619.983 658.965 C 611.205 659.603 602.339 658.847 593.52 658.463 C 586.802 658.171 583.859 651.114 583.785 644.94 C 583.702 638.099 583.773 631.255 584.049 624.161 C 583.863 619.209 583.838 614.251 583.825 609.063 C 591.165 610.015 598.489 611.294 606.025 612.748 C 606.211 618.541 606.187 624.158 606.127 630.099 C 606.115 630.098 606.103 630.096 606.092 630.095 Z" style="fill: white; stroke-width: 0.702;"/>
</svg>